{"accessors" : [{"bufferView" : 0, "byteOffset" : 0, "componentType" : 5123, "count" : 372, "type" : "SCALAR", "max" : [339], "min" : [0]}, {"bufferView" : 1, "byteOffset" : 0, "componentType" : 5126, "count" : 340, "type" : "VEC3", "max" : [1, 1, 1], "min" : [-1, -1, -1], "name" : "POSITION"}, {"bufferView" : 1, "byteOffset" : 12, "componentType" : 5126, "count" : 340, "type" : "VEC3", "max" : [0.9951891899108887, 0.9951891899108887, 1.0000044107437134], "min" : [-0.9951891899108887, -0.9951891899108887, -1.0000044107437134], "name" : "NORMAL"}], "asset" : {"generator" : "Aspose.3D 22.10", "version" : "2.0"}, "buffers" : [{"uri" : "data:application/octet-stream;base64,", "byteLength" : 9680}], "bufferViews" : [{"buffer" : 0, "byteOffset" : 0, "byteLength" : 744, "target" : 34963}, {"buffer" : 0, "byteOffset" : 748, "byteLength" : 8928, "byteStride" : 24, "target" : 34962}], "cameras" : [{"perspective" : {"aspectRatio" : 1.777778, "yfov" : 0.8575560087943506, "zfar" : 100, "znear" : 0.1}, "type" : "perspective", "name" : "Camera"}], "meshes" : [{"primitives" : [{"attributes" : {"POSITION" : 1, "NORMAL" : 2}, "indices" : 0, "mode" : 4}], "name" : ""}], "nodes" : [{"camera" : 0, "matrix" : [0.6859207, 0.7276763, 0, 0, -0.3240135, 0.3054208, 0.8953956, 0, 0.6515582, -0.6141704, 0.4452714, 0, 7.481132, -6.50764, 5.343665, 1], "name" : "Camera"}, {"matrix" : [0.6410467, 0, 0, 0, 0, 0.6410467, 0, 0, 0, 0, 0.6410467, 0, -0.1905995, 0.1460301, 0.686758, 1], "mesh" : 0, "name" : "Cylinder_001"}], "scene" : 0, "scenes" : [{"nodes" : [0, 1]}]}